<svg width="467" height="124" viewBox="0 0 467 124" fill="none" xmlns="http://www.w3.org/2000/svg">
<path d="M227 5.99998C230.333 9.26664 232 13.72 232 19.36V121.11C229.695 121.656 227.357 122.05 225 122.29C221.956 122.686 218.89 122.883 215.82 122.88C213.07 122.911 210.325 122.649 207.63 122.1C205.543 121.774 203.56 120.966 201.84 119.74C200.188 118.49 198.94 116.783 198.25 114.83C197.363 112.173 196.957 109.379 197.05 106.58V28.78H158.68V121.11C156.444 121.646 154.176 122.04 151.89 122.29C148.775 122.681 145.639 122.878 142.5 122.88C139.813 122.919 137.129 122.657 134.5 122.1C132.341 121.8 130.285 120.991 128.5 119.74C126.851 118.488 125.603 116.781 124.91 114.83C124.023 112.173 123.617 109.379 123.71 106.58V19.35C123.71 13.7233 125.377 9.26998 128.71 5.98998C132.043 2.70998 136.573 1.07331 142.3 1.07998H213.39C219.13 1.07998 223.667 2.71998 227 5.99998Z" fill="#3698D4"/>
<path d="M60.44 124C42.96 124 28.5167 118.277 17.11 106.83C5.70333 95.3833 0 80.4967 0 62.17C0 43.7567 5.66667 29.0333 17 18C28.3333 6.96666 42.8133 1.42333 60.44 1.37C78.1467 1.37 92.6667 6.91333 104 18C115.333 29.0867 121 43.8233 121 62.21C121 80.4967 115.297 95.3667 103.89 106.82C92.4833 118.273 78 124 60.44 124ZM37.6 88.13C43.5067 94.9233 51.12 98.32 60.44 98.32C69.76 98.32 77.3967 94.9233 83.35 88.13C89.35 81.3433 92.35 72.6767 92.35 62.13C92.35 51.83 89.35 43.34 83.35 36.66C77.35 29.98 69.7133 26.6467 60.44 26.66C51.1067 26.66 43.4933 29.9933 37.6 36.66C31.7067 43.3267 28.75 51.83 28.73 62.17C28.73 72.6833 31.6867 81.3367 37.6 88.13Z" fill="#F7E200"/>
<path d="M121 62C121.11 70.6235 119.565 79.1881 116.45 87.23C113.612 94.5372 109.315 101.189 103.82 106.78C98.3482 112.259 91.7959 116.54 84.58 119.35C76.9156 122.48 68.6866 123.992 60.41 123.79V1.19C68.6827 0.958343 76.9161 2.4111 84.61 5.46C91.8381 8.1187 98.4179 12.2846 103.913 17.681C109.407 23.0775 113.691 29.5811 116.48 36.76C119.606 44.8015 121.141 53.3734 121 62ZM92.31 62C92.3637 57.1853 91.5821 52.3977 90 47.85C88.5587 43.7123 86.3311 39.8923 83.44 36.6C80.6567 33.4656 77.2511 30.9454 73.44 29.2C69.358 27.3538 64.9197 26.4286 60.44 26.49C56.0024 26.4303 51.6067 27.3558 47.57 29.2C43.7726 30.9685 40.3713 33.4854 37.57 36.6C34.6368 39.8635 32.4011 43.6917 31 47.85C29.4551 52.406 28.6878 57.1894 28.73 62C28.6814 66.945 29.4761 71.8621 31.08 76.54C32.5099 80.7376 34.7223 84.6262 37.6 88C40.44 91.2495 43.9554 93.8396 47.9004 95.5893C51.8455 97.339 56.125 98.2061 60.44 98.13C64.8777 98.1897 69.2733 97.2642 73.31 95.42C77.1175 93.6374 80.5205 91.0954 83.31 87.95C86.2677 84.6153 88.5408 80.7317 90 76.52C91.5929 71.8473 92.3741 66.9364 92.31 62Z" fill="#E32967"/>
<path d="M294.89 123.66C277.41 123.66 262.97 117.937 251.57 106.49C240.17 95.0433 234.467 80.1733 234.46 61.88C234.46 43.4733 240.127 28.7366 251.46 17.67C262.793 6.6033 277.27 1.0733 294.89 1.07996C312.577 1.07996 327.097 6.60996 338.45 17.67C349.803 28.73 355.47 43.4666 355.45 61.88C355.45 80.1666 349.747 95.0366 338.34 106.49C326.933 117.943 312.45 123.667 294.89 123.66ZM272.05 87.84C277.957 94.6133 285.57 98 294.89 98C304.21 98 311.85 94.6033 317.81 87.81C323.81 81.0166 326.793 72.35 326.76 61.81C326.76 51.51 323.777 43.02 317.81 36.34C311.843 29.66 304.203 26.3266 294.89 26.34C285.557 26.34 277.943 29.6733 272.05 36.34C266.157 43.0066 263.2 51.4966 263.18 61.81C263.18 72.37 266.137 81.0466 272.05 87.84Z" fill="#3698D4"/>
<path d="M355.9 61.82C356.001 70.4275 354.453 78.9747 351.34 87C348.506 94.3121 344.208 100.968 338.71 106.56C333.24 112.037 326.691 116.317 319.48 119.13C311.813 122.264 303.58 123.772 295.3 123.56V0.999985C303.565 0.777435 311.791 2.22992 319.48 5.26999C326.709 7.93316 333.289 12.1042 338.782 17.5059C344.275 22.9077 348.556 29.4165 351.34 36.6C354.478 44.6322 356.027 53.1974 355.9 61.82ZM327.17 61.82C327.205 57.0099 326.41 52.2297 324.82 47.69C323.39 43.5527 321.176 39.7298 318.3 36.43C315.509 33.2752 312.084 30.7436 308.25 29C304.184 27.1575 299.764 26.229 295.3 26.28C290.862 26.2234 286.466 27.1524 282.43 29C278.632 30.7639 275.231 33.2776 272.43 36.39C269.515 39.6619 267.296 43.493 265.91 47.65C264.362 52.1987 263.592 56.9754 263.63 61.78C263.579 66.7399 264.381 71.6716 266 76.36C267.424 80.5462 269.633 84.4222 272.51 87.78C276.914 92.6319 282.739 95.9679 289.152 97.3113C295.565 98.6546 302.239 97.9367 308.22 95.26C312.051 93.4882 315.473 90.9412 318.27 87.78C321.197 84.4423 323.439 80.5622 324.87 76.36C326.456 71.6789 327.234 66.762 327.17 61.82Z" fill="#E32967"/>
<path d="M461.63 6.76998C464.963 10.0366 466.63 14.4866 466.63 20.12V121.89C464.324 122.431 461.986 122.825 459.63 123.07C456.586 123.461 453.519 123.658 450.45 123.66C447.7 123.693 444.954 123.428 442.26 122.87C440.172 122.552 438.189 121.747 436.47 120.52C434.816 119.269 433.567 117.557 432.88 115.6C431.992 112.943 431.586 110.149 431.68 107.35V29.55H393.34V121.89C391.103 122.421 388.835 122.815 386.55 123.07C383.435 123.456 380.299 123.653 377.16 123.66C374.472 123.701 371.788 123.436 369.16 122.87C367.001 122.577 364.943 121.772 363.16 120.52C361.509 119.266 360.261 117.555 359.57 115.6C358.682 112.943 358.276 110.149 358.37 107.35V20.12C358.37 14.4933 360.037 10.0433 363.37 6.76998C366.703 3.49664 371.247 1.85664 377 1.84998H448.09C453.783 1.84998 458.297 3.48998 461.63 6.76998Z" fill="#F7E200"/>
</svg>
