<svg width="20" height="22" viewBox="0 0 20 22" fill="none" xmlns="http://www.w3.org/2000/svg">
<g opacity="0.4">
<path d="M13.2006 1.98926L14.233 0.282999C14.2463 0.261109 14.2547 0.237043 14.2578 0.212176C14.2609 0.187308 14.2586 0.162125 14.2511 0.138066C14.2435 0.114006 14.2309 0.091541 14.2139 0.0719526C14.1969 0.0523642 14.1759 0.0360363 14.152 0.0239011C14.1037 -0.000607077 14.0468 -0.00654951 13.9937 0.00738109C13.9407 0.0213117 13.8959 0.0539742 13.8691 0.0981832L12.8252 1.82335C11.9345 1.46567 10.9725 1.281 10 1.281C9.02749 1.281 8.06553 1.46567 7.17483 1.82335L6.13089 0.0981832C6.10414 0.0539742 6.05931 0.0213117 6.00626 0.00738109C5.95322 -0.00654951 5.8963 -0.000607077 5.84804 0.0239011C5.79978 0.0484092 5.76413 0.0894755 5.74892 0.138066C5.73371 0.186656 5.7402 0.23879 5.76695 0.282999L6.79946 1.98927C5.81663 2.43305 4.9862 3.1162 4.39927 3.9638C3.81234 4.8114 3.49157 5.7907 3.47216 6.79428H16.5279C16.5085 5.7907 16.1877 4.8114 15.6008 3.9638C15.0138 3.1162 14.1834 2.43304 13.2006 1.98926ZM6.98709 4.60601C6.87927 4.60601 6.77387 4.57672 6.68422 4.52184C6.59456 4.46697 6.52469 4.38898 6.48343 4.29773C6.44216 4.20648 6.43137 4.10607 6.4524 4.0092C6.47344 3.91232 6.52536 3.82334 6.6016 3.7535C6.67785 3.68366 6.77498 3.6361 6.88074 3.61683C6.98649 3.59756 7.0961 3.60745 7.19572 3.64525C7.29533 3.68305 7.38048 3.74705 7.44038 3.82918C7.50028 3.9113 7.53225 4.00785 7.53225 4.10662C7.53209 4.23902 7.4746 4.36595 7.3724 4.45958C7.2702 4.5532 7.13163 4.60586 6.98709 4.60601ZM13.0129 4.60601C12.9051 4.60601 12.7997 4.57672 12.71 4.52184C12.6204 4.46697 12.5505 4.38898 12.5092 4.29773C12.468 4.20648 12.4572 4.10607 12.4782 4.0092C12.4993 3.91232 12.5512 3.82334 12.6274 3.7535C12.7037 3.68366 12.8008 3.6361 12.9065 3.61683C13.0123 3.59756 13.1219 3.60745 13.2215 3.64525C13.3211 3.68305 13.4063 3.74705 13.4662 3.82918C13.5261 3.9113 13.5581 4.00785 13.5581 4.10662C13.5579 4.23902 13.5004 4.36595 13.3982 4.45958C13.296 4.5532 13.1574 4.60586 13.0129 4.60601ZM3.47206 15.9348C3.47206 16.3182 3.63833 16.6859 3.9343 16.9571C4.23027 17.2282 4.63169 17.3805 5.05025 17.3805H6.09755V20.3375C6.09702 20.5139 6.13449 20.6886 6.2078 20.8516C6.28111 21.0147 6.38883 21.1629 6.52477 21.2878C6.66072 21.4127 6.82222 21.5117 7.00003 21.5793C7.17784 21.6469 7.36847 21.6817 7.56098 21.6817C7.7535 21.6817 7.94412 21.6469 8.12193 21.5793C8.29974 21.5117 8.46125 21.4127 8.59719 21.2878C8.73314 21.1629 8.84085 21.0147 8.91416 20.8516C8.98747 20.6886 9.02494 20.5139 9.02442 20.3375V17.3805H10.9756V20.3375C10.9751 20.5139 11.0125 20.6886 11.0858 20.8516C11.1591 21.0147 11.2669 21.1629 11.4028 21.2878C11.5387 21.4127 11.7003 21.5117 11.8781 21.5793C12.0559 21.6469 12.2465 21.6817 12.439 21.6817C12.6315 21.6817 12.8222 21.6469 13 21.5793C13.1778 21.5117 13.3393 21.4127 13.4752 21.2878C13.6112 21.1629 13.7189 21.0147 13.7922 20.8516C13.8655 20.6886 13.903 20.5139 13.9025 20.3375V17.3805H14.9498C15.157 17.3805 15.3623 17.3431 15.5537 17.2704C15.7452 17.1978 15.9192 17.0913 16.0657 16.9571C16.2123 16.8228 16.3285 16.6634 16.4078 16.488C16.4872 16.3126 16.528 16.1247 16.528 15.9348V7.26735H3.47206V15.9348ZM1.46344 7.03736C1.07544 7.03776 0.703469 7.17913 0.429118 7.43045C0.154767 7.68176 0.000443827 8.0225 5.37896e-06 8.37792V13.9634C-0.000516564 14.1398 0.0369511 14.3145 0.110262 14.4776C0.183573 14.6406 0.291286 14.7888 0.42723 14.9137C0.563175 15.0386 0.724679 15.1377 0.90249 15.2052C1.0803 15.2728 1.27093 15.3076 1.46344 15.3076C1.65596 15.3076 1.84658 15.2728 2.02439 15.2052C2.2022 15.1377 2.36371 15.0386 2.49965 14.9137C2.6356 14.7888 2.74331 14.6406 2.81662 14.4776C2.88993 14.3145 2.9274 14.1398 2.92688 13.9634V8.37792C2.92644 8.0225 2.77211 7.68176 2.49776 7.43044C2.22341 7.17913 1.85143 7.03776 1.46344 7.03736ZM18.5366 7.03736C18.1486 7.03776 17.7766 7.17913 17.5022 7.43044C17.2279 7.68176 17.0736 8.0225 17.0731 8.37792V13.9634C17.0726 14.1398 17.1101 14.3145 17.1834 14.4776C17.2567 14.6406 17.3644 14.7888 17.5003 14.9137C17.6363 15.0386 17.7978 15.1377 17.9756 15.2052C18.1534 15.2728 18.344 15.3076 18.5366 15.3076C18.7291 15.3076 18.9197 15.2728 19.0975 15.2052C19.2753 15.1377 19.4368 15.0386 19.5728 14.9137C19.7087 14.7888 19.8164 14.6406 19.8897 14.4776C19.963 14.3145 20.0005 14.1398 20 13.9634V8.37792C19.9996 8.0225 19.8452 7.68176 19.5709 7.43045C19.2965 7.17913 18.9246 7.03776 18.5366 7.03736Z" fill="black"/>
</g>
</svg>
