<svg width="20" height="22" viewBox="0 0 20 22" fill="none" xmlns="http://www.w3.org/2000/svg">
<g opacity="0.4">
<path d="M16.7216 11.521C16.7109 9.73465 17.593 8.3864 19.3783 7.39347C18.3794 6.08416 16.8703 5.36379 14.8778 5.22264C12.9915 5.08635 10.9299 6.23018 10.1753 6.23018C9.37832 6.23018 7.55048 5.27131 6.11583 5.27131C3.1509 5.31512 0 7.43727 0 11.7546C0 13.0298 0.255048 14.3473 0.765143 15.7069C1.44527 17.4932 3.90011 21.8738 6.46121 21.8007C7.80021 21.7715 8.74601 20.9295 10.4888 20.9295C12.1785 20.9295 13.0553 21.8007 14.5484 21.8007C17.1307 21.7667 19.3518 17.7852 20 15.994C16.5356 14.4998 16.7216 11.6134 16.7216 11.521ZM13.7141 3.52881C15.1647 1.9518 15.0319 0.515936 14.9894 0C13.7088 0.0681425 12.2264 0.798241 11.3815 1.6987C10.4516 2.66243 9.90436 3.85492 10.0213 5.1983C11.4081 5.29565 12.6727 4.64343 13.7141 3.52881Z" fill="black"/>
</g>
</svg>
