<svg width="45" height="45" viewBox="0 0 45 45" fill="none" xmlns="http://www.w3.org/2000/svg">
<path d="M22.4852 44.9703C10.0865 44.9703 0 34.8838 0 22.4852C0 10.0865 10.0865 0 22.4852 0C34.8838 0 44.9703 10.0865 44.9703 22.4852C44.9703 34.8838 34.8838 44.9703 22.4852 44.9703ZM22.4852 2.078C11.2332 2.078 2.07988 11.2332 2.07988 22.4852C2.07988 33.7371 11.2332 42.8904 22.4852 42.8904C33.7371 42.8904 42.8904 33.7371 42.8904 22.4852C42.8904 11.2332 33.7371 2.078 22.4852 2.078V2.078ZM11.5836 11.2238C12.2432 8.04219 14.3999 5.17346 17.2986 3.73628C16.7945 4.24782 16.1837 4.64131 15.7171 5.19782C13.8059 7.25896 12.944 10.242 13.4705 12.9852C14.1357 17.173 18.0706 20.5927 22.3371 20.5327C25.6443 20.6807 28.8672 18.777 30.4842 15.9082C33.947 16.0263 37.3141 17.8139 39.2909 20.6826C40.3028 22.1797 41.0935 23.9354 41.1478 25.7624C40.507 23.3358 38.8956 21.1791 36.6976 19.9631C35.632 19.3661 34.4579 18.9882 33.2441 18.8514C32.0304 18.7147 30.8015 18.8219 29.6298 19.1667C26.7067 20.0062 24.2915 22.3952 23.4595 25.337C22.7531 27.6792 23.0548 30.2613 24.1659 32.4049C22.6201 35.0825 19.8282 36.9937 16.7983 37.5689C14.4673 38.058 12.0183 37.6795 9.8485 36.6995C11.7897 37.2654 13.8977 37.3647 15.8277 36.6789C17.1209 36.2399 18.3003 35.5187 19.2804 34.5675C20.2604 33.6163 21.0165 32.459 21.4939 31.1794C22.5357 28.3875 22.1404 25.0691 20.3865 22.6725C19.0749 20.7857 17.0081 19.4553 14.7615 18.9831C14.0495 18.8557 13.3299 18.7995 12.6104 18.732C11.4656 16.4254 11.0477 13.7478 11.6211 11.2444L11.5836 11.2238Z" fill="#C31162"/>
</svg>
