<svg width="61" height="74" viewBox="0 0 61 74" fill="none" xmlns="http://www.w3.org/2000/svg">
<path opacity="0.4" d="M30.3361 66.1299C47.0903 66.1299 60.6723 52.5479 60.6723 35.7938C60.6723 19.0396 47.0903 5.45764 30.3361 5.45764C13.5819 5.45764 0 19.0396 0 35.7938C0 52.5479 13.5819 66.1299 30.3361 66.1299Z" fill="#B3E8FF"/>
<path opacity="0.4" d="M31.0201 60.214C44.8052 60.214 55.9802 49.039 55.9802 35.254C55.9802 21.4689 44.8052 10.2939 31.0201 10.2939C17.2351 10.2939 6.06006 21.4689 6.06006 35.254C6.06006 49.039 17.2351 60.214 31.0201 60.214Z" fill="#B3E8FF"/>
<path opacity="0.4" d="M3.59837 11.9522C4.82819 11.9522 5.82516 10.9553 5.82516 9.72545C5.82516 8.49562 4.82819 7.49866 3.59837 7.49866C2.36855 7.49866 1.37158 8.49562 1.37158 9.72545C1.37158 10.9553 2.36855 11.9522 3.59837 11.9522Z" fill="#B3E8FF"/>
<path opacity="0.4" d="M3.88201 4.97667C4.57557 4.97667 5.13781 4.41444 5.13781 3.72088C5.13781 3.02733 4.57557 2.46509 3.88201 2.46509C3.18846 2.46509 2.62622 3.02733 2.62622 3.72088C2.62622 4.41444 3.18846 4.97667 3.88201 4.97667Z" fill="#B3E8FF"/>
<path opacity="0.5" d="M42.8053 4.02539H18.5675C15.3112 4.02539 12.6714 6.66518 12.6714 9.92153V68.1039C12.6714 71.3602 15.3112 74 18.5675 74H42.8053C46.0616 74 48.7014 71.3602 48.7014 68.1039V9.92153C48.7014 6.66518 46.0616 4.02539 42.8053 4.02539Z" fill="#C2CED3"/>
<path d="M43.2045 2.18042H18.0856C15.1689 2.18042 12.8044 4.54487 12.8044 7.46156V66.1959C12.8044 69.1126 15.1689 71.4771 18.0856 71.4771H43.2045C46.1212 71.4771 48.4857 69.1126 48.4857 66.1959V7.46156C48.4857 4.54487 46.1212 2.18042 43.2045 2.18042Z" fill="#29C6FF"/>
<path d="M43.1737 2.428H17.9041C17.0965 2.42673 16.2993 2.60961 15.573 2.96275C14.8466 3.31589 14.2104 3.82999 13.7126 4.46595C14.6456 3.7411 15.794 3.34853 16.9754 3.3505H42.2451C43.6497 3.34666 44.9984 3.90084 45.9946 4.89119C46.9907 5.88154 47.5528 7.22697 47.5571 8.63164V67.3671C47.5577 68.5432 47.1622 69.6853 46.4345 70.6092C47.072 70.1179 47.5884 69.4869 47.9439 68.7647C48.2993 68.0425 48.4844 67.2484 48.4848 66.4435V7.70811C48.4804 6.30371 47.9185 4.95855 46.9225 3.96839C45.9266 2.97824 44.5781 2.42416 43.1737 2.428Z" fill="#22A6FF"/>
<path d="M43.2047 71.8886H18.0857C16.5763 71.887 15.1291 71.2867 14.0617 70.2195C12.9943 69.1522 12.3938 67.7052 12.3918 66.1957V7.46032C12.3938 5.95088 12.9943 4.50384 14.0617 3.4366C15.1291 2.36937 16.5763 1.76909 18.0857 1.76746H43.2047C44.7141 1.76909 46.1613 2.36937 47.2287 3.4366C48.2961 4.50384 48.8967 5.95088 48.8986 7.46032V20.7282H48.0731V7.46032C48.0714 6.16974 47.558 4.9325 46.6453 4.02002C45.7326 3.10754 44.4953 2.59432 43.2047 2.59296H18.0857C16.7952 2.59432 15.5578 3.10754 14.6451 4.02002C13.7325 4.9325 13.219 6.16974 13.2173 7.46032V66.1957C13.219 67.4863 13.7325 68.7236 14.6451 69.636C15.5578 70.5485 16.7952 71.0617 18.0857 71.0631H43.2047C44.4953 71.0617 45.7326 70.5485 46.6453 69.636C47.558 68.7236 48.0714 67.4863 48.0731 66.1957V27.1382H48.8986V66.1957C48.8967 67.7052 48.2961 69.1522 47.2287 70.2195C46.1613 71.2867 44.7141 71.887 43.2047 71.8886Z" fill="#EE5922"/>
<path d="M48.073 25.2397H48.8985V26.0879H48.073V25.2397Z" fill="#EE5922"/>
<path d="M48.073 22.083H48.8985V24.4635H48.073V22.083Z" fill="#EE5922"/>
<path d="M43.5184 4.80042H17.7731C16.3803 4.80042 15.2512 5.92951 15.2512 7.32232V65.9215C15.2512 67.3143 16.3803 68.4434 17.7731 68.4434H43.5184C44.9112 68.4434 46.0403 67.3143 46.0403 65.9215V7.32232C46.0403 5.92951 44.9112 4.80042 43.5184 4.80042Z" fill="white"/>
<path d="M43.3717 4.94592H17.6264C17.1678 4.94546 16.7178 5.07013 16.3249 5.30652C15.9319 5.5429 15.6109 5.88203 15.3965 6.28736C15.7588 6.09621 16.1622 5.99632 16.5718 5.99637H42.3171C42.986 5.99637 43.6274 6.26207 44.1004 6.73502C44.5733 7.20797 44.839 7.84943 44.839 8.51828V67.1216C44.8396 67.5316 44.7396 67.9355 44.548 68.298C44.9534 68.0833 45.2926 67.7622 45.529 67.369C45.7654 66.9759 45.89 66.5258 45.8895 66.067V7.46783C45.8895 6.79969 45.6243 6.15886 45.1523 5.68603C44.6802 5.2132 44.0398 4.94702 43.3717 4.94592Z" fill="white"/>
<path d="M43.5171 68.753H17.7729C17.0222 68.7522 16.3025 68.4536 15.7716 67.9228C15.2408 67.392 14.9422 66.6722 14.9414 65.9215V7.32646C14.9422 6.57576 15.2408 5.85604 15.7716 5.32522C16.3025 4.79439 17.0222 4.49581 17.7729 4.495H43.5171C44.2678 4.49581 44.9876 4.79439 45.5184 5.32522C46.0492 5.85604 46.3478 6.57576 46.3486 7.32646V65.9215C46.3478 66.6722 46.0492 67.392 45.5184 67.9228C44.9876 68.4536 44.2678 68.7522 43.5171 68.753ZM17.7729 5.10999C17.4821 5.11026 17.1942 5.16781 16.9256 5.27934C16.6571 5.39088 16.4131 5.55422 16.2077 5.76004C16.0022 5.96586 15.8393 6.21012 15.7283 6.47889C15.6173 6.74766 15.5603 7.03566 15.5605 7.32646V65.9215C15.5611 66.5081 15.7943 67.0705 16.2091 67.4853C16.6239 67.9001 17.1863 68.1333 17.7729 68.1339H43.5171C44.1037 68.1333 44.6661 67.9001 45.0809 67.4853C45.4957 67.0705 45.7289 66.5081 45.7295 65.9215V7.32646C45.7289 6.73988 45.4957 6.17748 45.0809 5.7627C44.6661 5.34793 44.1037 5.11467 43.5171 5.11412L17.7729 5.10999Z" fill="#EE5922"/>
<path d="M8.40193 4.13381C9.30064 4.13381 10.0292 3.40526 10.0292 2.50654C10.0292 1.60783 9.30064 0.879272 8.40193 0.879272C7.50321 0.879272 6.77466 1.60783 6.77466 2.50654C6.77466 3.40526 7.50321 4.13381 8.40193 4.13381Z" fill="#B3E8FF"/>
<path d="M12.9315 1.29604C13.2894 1.29604 13.5795 1.00591 13.5795 0.648018C13.5795 0.290128 13.2894 0 12.9315 0C12.5736 0 12.2834 0.290128 12.2834 0.648018C12.2834 1.00591 12.5736 1.29604 12.9315 1.29604Z" fill="#FFC62A"/>
<path d="M10.9027 6.9402C11.2605 6.9402 11.5507 6.65007 11.5507 6.29218C11.5507 5.93429 11.2605 5.64417 10.9027 5.64417C10.5448 5.64417 10.2546 5.93429 10.2546 6.29218C10.2546 6.65007 10.5448 6.9402 10.9027 6.9402Z" fill="#EE5922"/>
<path d="M51.8919 10.4054C52.7906 10.4054 53.5192 9.67686 53.5192 8.77815C53.5192 7.87943 52.7906 7.15088 51.8919 7.15088C50.9932 7.15088 50.2646 7.87943 50.2646 8.77815C50.2646 9.67686 50.9932 10.4054 51.8919 10.4054Z" fill="#B3E8FF"/>
<path d="M53.5203 5.91579C53.8782 5.91579 54.1684 5.62566 54.1684 5.26777C54.1684 4.90988 53.8782 4.61975 53.5203 4.61975C53.1624 4.61975 52.8723 4.90988 52.8723 5.26777C52.8723 5.62566 53.1624 5.91579 53.5203 5.91579Z" fill="#EE5922"/>
<path d="M14.0222 18.9721C13.9401 18.9721 13.8614 18.9395 13.8033 18.8814C13.7453 18.8234 13.7126 18.7446 13.7126 18.6625V12.0348C13.7126 11.9527 13.7453 11.8739 13.8033 11.8159C13.8614 11.7578 13.9401 11.7252 14.0222 11.7252C14.1043 11.7252 14.183 11.7578 14.2411 11.8159C14.2992 11.8739 14.3318 11.9527 14.3318 12.0348V18.6625C14.3318 18.7446 14.2992 18.8234 14.2411 18.8814C14.183 18.9395 14.1043 18.9721 14.0222 18.9721Z" fill="white"/>
<path d="M14.0222 21.268C13.9401 21.268 13.8614 21.2354 13.8033 21.1773C13.7453 21.1192 13.7126 21.0405 13.7126 20.9584V20.3155C13.7126 20.2334 13.7453 20.1547 13.8033 20.0967C13.8614 20.0386 13.9401 20.006 14.0222 20.006C14.1043 20.006 14.183 20.0386 14.2411 20.0967C14.2992 20.1547 14.3318 20.2334 14.3318 20.3155V20.9584C14.3318 21.0405 14.2992 21.1192 14.2411 21.1773C14.183 21.2354 14.1043 21.268 14.0222 21.268Z" fill="white"/>
<path d="M18.8167 50.017H45.1491V51.6855H18.8167V50.017Z" fill="white"/>
<path d="M18.8167 54.3325H45.1491V56.0011H18.8167V54.3325Z" fill="white"/>
<path d="M18.8167 60.1677H45.1491V61.8363H18.8167V60.1677Z" fill="white"/>
<path d="M18.5068 57.1897H58.1267V60.599H18.5068V57.1897Z" fill="#EDE9E4"/>
<path d="M18.5068 52.7135H53.5205V54.8918H18.5068V52.7135Z" fill="#EDE9E4"/>
<path d="M18.5068 48.2371H51.1007V50.4153H18.5068V48.2371Z" fill="#EDE9E4"/>
<path d="M18.5068 48.4921H51.1007V49.0204H18.5068V48.4921Z" fill="white"/>
<path d="M18.155 53.094H53.5205V53.4799H18.155V53.094Z" fill="white"/>
<path d="M18.5068 57.1897H58.3166V58.2587H18.5068V57.1897Z" fill="white"/>
<path d="M19.3694 43.0232H44.8392V44.6917H19.3694V43.0232Z" fill="white"/>
<path d="M19.3694 36.6935H44.8392V38.362H19.3694V36.6935Z" fill="white"/>
<path d="M19.3694 32.1307H44.8392V33.7993H19.3694V32.1307Z" fill="white"/>
<path d="M18.5068 39.4176H58.1267V42.8269H18.5068V39.4176Z" fill="#EDE9E4"/>
<path d="M18.155 39.8707H57.7749V40.399H18.155V39.8707Z" fill="white"/>
<path d="M58.5391 43.4359H18.0896V39.005H58.5391V43.4359ZM18.9151 42.6104H57.7136V39.8305H18.9151V42.6104Z" fill="#EE5922"/>
<path d="M18.5068 34.9414H53.5205V37.1197H18.5068V34.9414Z" fill="#EDE9E4"/>
<path d="M18.5068 30.4659H51.1007V32.6442H18.5068V30.4659Z" fill="#EDE9E4"/>
<path d="M18.5068 35.3282H53.5205V35.8566H18.5068V35.3282Z" fill="white"/>
<path d="M18.7429 30.8149H50.6774V31.3433H18.7429V30.8149Z" fill="white"/>
<path d="M53.9329 37.6635H18.0938V34.5287H53.9329V37.6635ZM18.9193 36.838H53.1074V35.3542H18.9193V36.838Z" fill="#EE5922"/>
<path d="M51.5121 33.183H18.0938V30.0533H51.5121V33.183ZM18.9193 32.3575H50.6866V30.8788H18.9193V32.3575Z" fill="#EE5922"/>
<path d="M51.5121 50.9551H18.0938V47.8243H51.5121V50.9551ZM18.9193 50.1296H50.6866V48.6498H18.9193V50.1296Z" fill="#EE5922"/>
<path d="M53.9329 55.4302H18.0938V52.3005H53.9329V55.4302ZM18.9193 54.6047H53.1074V53.126H18.9193V54.6047Z" fill="#EE5922"/>
<path d="M58.5391 61.2077H18.0896V56.7769H58.5391V61.2077ZM18.9151 60.3822H57.7136V57.6024H18.9151V60.3822Z" fill="#EE5922"/>
<path d="M18.8608 14.0573H45.1933V15.7258H18.8608V14.0573Z" fill="white"/>
<path d="M18.551 11.0793H58.1709V14.4887H18.551V11.0793Z" fill="white"/>
<path d="M18.551 11.0793H58.3608V12.1484H18.551V11.0793Z" fill="white"/>
<path d="M58.5836 15.0983H18.134V10.6664H58.5836V15.0983ZM18.9595 14.2728H57.7581V11.4919H18.9595V14.2728Z" fill="#EE5922"/>
<path d="M22.231 5.86511V6.74014C22.2308 7.00767 22.2834 7.27261 22.3857 7.5198C22.488 7.76699 22.6381 7.9916 22.8273 8.18077C23.0164 8.36994 23.241 8.51997 23.4882 8.62229C23.7354 8.72461 24.0003 8.7772 24.2679 8.77707H38.3437C38.6112 8.7772 38.8762 8.72461 39.1234 8.62229C39.3706 8.51997 39.5952 8.36994 39.7843 8.18077C39.9735 7.9916 40.1235 7.76699 40.2258 7.5198C40.3282 7.27261 40.3808 7.00767 40.3806 6.74014V5.86511" fill="white"/>
<path d="M21.9788 4.12756V5.11404C21.9788 6.38221 22.8909 7.40893 24.0157 7.40893H38.0905C39.2152 7.40893 40.1274 6.37705 40.1274 5.11404V4.12756" fill="#29C6FF"/>
<path d="M38.2876 7.71944H24.2107C23.5886 7.7189 22.9921 7.4715 22.5521 7.03157C22.1122 6.59164 21.8648 5.99511 21.8643 5.37296V4.49792H22.4834V5.37296C22.4839 5.83091 22.6661 6.26996 22.9899 6.59378C23.3137 6.91761 23.7528 7.09977 24.2107 7.10032H38.2876C38.7456 7.09977 39.1846 6.91761 39.5084 6.59378C39.8322 6.26996 40.0144 5.83091 40.015 5.37296V4.49792H40.6341V5.37296C40.6335 5.99511 40.3861 6.59164 39.9462 7.03157C39.5063 7.4715 38.9098 7.7189 38.2876 7.71944Z" fill="#EE5922"/>
<path d="M32.7262 5.28937H27.7484C27.639 5.28937 27.534 5.24588 27.4566 5.16848C27.3792 5.09107 27.3357 4.98609 27.3357 4.87662C27.3357 4.76715 27.3792 4.66216 27.4566 4.58476C27.534 4.50735 27.639 4.46387 27.7484 4.46387H32.7262C32.8357 4.46387 32.9407 4.50735 33.0181 4.58476C33.0955 4.66216 33.139 4.76715 33.139 4.87662C33.139 4.98609 33.0955 5.09107 33.0181 5.16848C32.9407 5.24588 32.8357 5.28937 32.7262 5.28937Z" fill="#EE5922"/>
<path d="M34.4502 5.28937H34.4254C34.316 5.28937 34.211 5.24588 34.1336 5.16848C34.0562 5.09107 34.0127 4.98609 34.0127 4.87662C34.0127 4.76715 34.0562 4.66216 34.1336 4.58476C34.211 4.50735 34.316 4.46387 34.4254 4.46387H34.4502C34.5597 4.46387 34.6647 4.50735 34.7421 4.58476C34.8195 4.66216 34.863 4.76715 34.863 4.87662C34.863 4.98609 34.8195 5.09107 34.7421 5.16848C34.6647 5.24588 34.5597 5.28937 34.4502 5.28937Z" fill="#EE5922"/>
<path d="M12.4206 12.8335C12.3111 12.8335 12.2061 12.79 12.1287 12.7126C12.0513 12.6352 12.0078 12.5302 12.0078 12.4207V9.94424C12.0078 9.83478 12.0513 9.72979 12.1287 9.65239C12.2061 9.57498 12.3111 9.53149 12.4206 9.53149C12.53 9.53149 12.635 9.57498 12.7124 9.65239C12.7898 9.72979 12.8333 9.83478 12.8333 9.94424V12.4207C12.8333 12.5302 12.7898 12.6352 12.7124 12.7126C12.635 12.79 12.53 12.8335 12.4206 12.8335Z" fill="#EE5922"/>
<path d="M12.4318 17.3004C12.3223 17.3004 12.2173 17.2569 12.1399 17.1795C12.0625 17.1021 12.019 16.9971 12.019 16.8877V14.4112C12.019 14.3017 12.0625 14.1967 12.1399 14.1193C12.2173 14.0419 12.3223 13.9984 12.4318 13.9984C12.5413 13.9984 12.6462 14.0419 12.7237 14.1193C12.8011 14.1967 12.8445 14.3017 12.8445 14.4112V16.8877C12.8445 16.9971 12.8011 17.1021 12.7237 17.1795C12.6462 17.2569 12.5413 17.3004 12.4318 17.3004Z" fill="#EE5922"/>
<path d="M22.1273 26.8328C24.0626 26.8328 25.6315 25.2639 25.6315 23.3286C25.6315 21.3932 24.0626 19.8243 22.1273 19.8243C20.192 19.8243 18.623 21.3932 18.623 23.3286C18.623 25.2639 20.192 26.8328 22.1273 26.8328Z" fill="white"/>
<path d="M22.2577 25.5297C24.3293 25.5297 26.0086 23.8504 26.0086 21.7788C26.0086 19.7073 24.3293 18.028 22.2577 18.028C20.1862 18.028 18.5068 19.7073 18.5068 21.7788C18.5068 23.8504 20.1862 25.5297 22.2577 25.5297Z" fill="#FF2457"/>
<path d="M22.2575 25.8383C21.4541 25.8393 20.6686 25.602 20.0001 25.1564C19.3317 24.7108 18.8104 24.077 18.5024 23.335C18.1943 22.5931 18.1132 21.7765 18.2694 20.9885C18.4255 20.2005 18.812 19.4765 19.3797 18.9081C19.9475 18.3398 20.6711 17.9527 21.4589 17.7957C22.2468 17.6387 23.0635 17.719 23.8057 18.0263C24.5479 18.3336 25.1823 18.8542 25.6286 19.5222C26.0749 20.1902 26.313 20.9755 26.3128 21.7789C26.3114 22.8544 25.8838 23.8855 25.1237 24.6463C24.3636 25.4072 23.333 25.8358 22.2575 25.8383ZM22.2575 18.3376C21.5766 18.3365 20.9108 18.5375 20.3442 18.915C19.7776 19.2925 19.3357 19.8296 19.0745 20.4584C18.8132 21.0871 18.7443 21.7792 18.8765 22.4471C19.0087 23.115 19.3361 23.7286 19.8171 24.2104C20.2982 24.6922 20.9114 25.0205 21.5791 25.1537C22.2468 25.2869 22.9389 25.219 23.5681 24.9587C24.1972 24.6984 24.7349 24.2573 25.1133 23.6913C25.4917 23.1253 25.6936 22.4597 25.6936 21.7789C25.6925 20.8674 25.3303 19.9935 24.6863 19.3485C24.0423 18.7035 23.169 18.34 22.2575 18.3376Z" fill="#EE5922"/>
<path d="M21.5918 20.7666C21.5899 20.7235 21.5995 20.6808 21.6197 20.6427C21.6398 20.6046 21.6697 20.5726 21.7063 20.5499L22.2501 20.1371C22.2848 20.1071 22.3291 20.0906 22.375 20.0907C22.4407 20.0903 22.5051 20.1097 22.5597 20.1464C22.5842 20.1604 22.6048 20.1804 22.6192 20.2047C22.6337 20.2289 22.6416 20.2565 22.6422 20.2847V23.2771C22.6418 23.3063 22.6332 23.3348 22.6173 23.3592C22.6014 23.3837 22.5789 23.4032 22.5525 23.4154C22.4871 23.4487 22.4148 23.466 22.3414 23.466C22.2681 23.466 22.1958 23.4487 22.1304 23.4154C22.1045 23.4027 22.0826 23.383 22.0671 23.3586C22.0516 23.3342 22.0432 23.306 22.0427 23.2771V20.8171L21.8952 20.9647C21.8652 20.9924 21.8255 21.0072 21.7847 21.006C21.7575 21.0061 21.7306 20.9994 21.7064 20.9866C21.6823 20.9739 21.6617 20.9553 21.6465 20.9327C21.6101 20.885 21.5909 20.8265 21.5918 20.7666Z" fill="white"/>
<path opacity="0.5" d="M19.7573 20.6054C19.7427 20.6059 19.7281 20.6027 19.715 20.5961C19.6904 20.5846 19.6712 20.5639 19.6617 20.5384C19.6523 20.5129 19.6532 20.4847 19.6645 20.4599C19.8186 20.1088 20.0571 19.8013 20.3589 19.5647C20.6606 19.3281 21.0162 19.1699 21.3939 19.104C21.4213 19.0987 21.4496 19.1044 21.4728 19.12C21.4959 19.1356 21.5119 19.1597 21.5172 19.1871C21.5225 19.2144 21.5168 19.2428 21.5012 19.2659C21.4856 19.289 21.4615 19.305 21.4341 19.3104C21.0878 19.368 20.7615 19.5115 20.4849 19.7278C20.2084 19.9442 19.9905 20.2264 19.8512 20.5486C19.8425 20.566 19.8291 20.5805 19.8125 20.5905C19.7959 20.6006 19.7768 20.6057 19.7573 20.6054Z" fill="white"/>
<path opacity="0.5" d="M19.5026 21.5992C19.4752 21.5992 19.449 21.5883 19.4296 21.569C19.4103 21.5496 19.3994 21.5234 19.3994 21.496C19.412 21.2974 19.4466 21.1009 19.5026 20.9099C19.5099 20.8835 19.5273 20.861 19.5511 20.8475C19.5749 20.834 19.6031 20.8304 19.6295 20.8377C19.6559 20.8449 19.6784 20.8624 19.6919 20.8862C19.7055 20.91 19.709 20.9382 19.7018 20.9646C19.6514 21.1399 19.6203 21.3202 19.6089 21.5022C19.6073 21.529 19.5953 21.5542 19.5754 21.5723C19.5556 21.5904 19.5295 21.6 19.5026 21.5992Z" fill="white"/>
</svg>
